<svg width="78.000000" height="21.000000" viewBox="0 0 78 21" fill="none" xmlns="http://www.w3.org/2000/svg" xmlns:xlink="http://www.w3.org/1999/xlink">
	<desc>
			Created with Pixso.
	</desc>
	<defs/>
	<g opacity="0.900000">
		<path id="ALTYN" d="M16.07 8.56L16.07 8.34Q16.09 7.8 16.05 7.28Q16 6.65 15.87 6.04Q15.63 4.9 15.16 3.87Q14.89 3.27 14.53 2.72Q14.28 2.34 13.99 1.99Q13.48 1.35 12.87 0.84Q12.64 0.66 12.4 0.49Q11.5 -0.15 10.41 -0.51Q9.32 -0.89 8.06 -0.9Q6.21 -0.91 4.7 -0.26Q3.7 0.17 2.88 0.82Q2.47 1.16 2.1 1.55Q2.04 1.61 1.98 1.68Q0.99 2.79 0.43 4.28Q-0.17 5.85 -0.19 7.69L-0.26 16.27L4.39 16.31L4.43 12.21L9.48 12.25L9.49 10.32L4.44 10.28L4.47 7.01Q4.47 6.4 4.52 5.72Q4.57 5.03 4.7 4.36Q4.85 3.68 5.09 3.07Q5.34 2.47 5.74 2.01Q5.91 1.83 6.09 1.68Q6.38 1.44 6.73 1.28Q7.32 1.01 8.13 1.01Q9.04 1.02 9.65 1.4Q9.94 1.58 10.17 1.8Q10.44 2.07 10.65 2.41Q11.04 3.03 11.24 3.83Q11.43 4.62 11.5 5.45Q11.59 6.28 11.58 7.09Q11.59 7.89 11.58 8.52Q11.58 9.33 11.5 10.23Q11.43 11.12 11.29 12.05Q11.16 12.97 10.95 13.91Q10.75 14.84 10.48 15.73Q10.2 16.62 9.85 17.42Q9.52 18.24 9.1 18.93L10.84 19.95Q11.57 19.33 12.23 18.5Q12.9 17.68 13.47 16.74Q14.05 15.81 14.52 14.78Q14.98 13.75 15.32 12.7Q15.66 11.65 15.84 10.6Q16.04 9.54 16.07 8.56ZM19.04 16.44L31.15 16.54L31.17 14.4L23.71 14.33L23.83 -0.4L19.18 -0.44L19.04 16.44ZM35.01 16.57L39.66 16.61L39.79 1.89L44.38 1.93L44.4 -0.22L30.56 -0.34L30.54 1.81L35.14 1.85L35.01 16.57ZM54.94 9.65L60.49 -0.09L57.21 -0.11L53.2 8.34L49.6 -0.18L44.86 -0.22L50.29 9.87L50.23 16.7L54.88 16.74L54.94 9.65ZM62.21 16.81L64.36 16.82L64.46 5.25L74.61 16.91L77.63 16.94L77.77 0.06L75.63 0.04L75.53 11.63L65.38 -0.04L62.35 -0.07L62.21 16.81Z" fill="#FFFFFF" fill-opacity="1.000000" fill-rule="evenodd"/>
	</g>
</svg>
